HIERARCHY
ROOT Pelvis
{
	OFFSET 0.000000 0.000000 0.000000
	CHANNELS 6 Xposition Yposition Zposition Xrotation Yrotation Zrotation
	JOINT LeftUpLeg_virtual
	{
		OFFSET 0.000000 0.000000 0.000000
		CHANNELS 3 Xrotation Yrotation Zrotation
		JOINT LeftUpLeg
		{
			OFFSET 8.479700 -4.795502 -0.379100
			CHANNELS 3 Xrotation Yrotation Zrotation
			JOINT LeftLeg
			{
				OFFSET 0.024144 -32.555107 0.112900
				CHANNELS 3 Xrotation Yrotation Zrotation
				JOINT LeftFoot
				{
					OFFSET -0.024144 -32.638630 -3.012600
					CHANNELS 3 Xrotation Yrotation Zrotation
					JOINT LeftToeBase
					{
						OFFSET 0.970200 -13.225400 11.864200
						CHANNELS 3 Xrotation Yrotation Zrotation
						End Site
						{
							OFFSET 0 0 0
						}
					}
				}
			}
		}
	}
	JOINT RightUpLeg_virtual
	{
		OFFSET 0.000000 0.000000 0.000000
		CHANNELS 3 Xrotation Yrotation Zrotation
		JOINT RightUpLeg
		{
			OFFSET -8.479700 -4.795502 -0.379100
			CHANNELS 3 Xrotation Yrotation Zrotation
			JOINT RightLeg
			{
				OFFSET -0.023144 -32.555092 0.112900
				CHANNELS 3 Xrotation Yrotation Zrotation
				JOINT RightFoot
				{
					OFFSET 0.023144 -32.638641 -3.012700
					CHANNELS 3 Xrotation Yrotation Zrotation
					JOINT RightToeBase
					{
						OFFSET -0.970200 -13.225400 11.864200
						CHANNELS 3 Xrotation Yrotation Zrotation
						End Site
						{
							OFFSET 0 0 0
						}
					}
				}
			}
		}
	}
	JOINT Hips_virtual
	{
		OFFSET 0.000000 0.000000 0.000000
		CHANNELS 3 Xrotation Yrotation Zrotation
		JOINT Hips
		{
			OFFSET -0.000000 -0.000000 -0.000000
			CHANNELS 3 Xrotation Yrotation Zrotation
			JOINT Spine
			{
				OFFSET 0.000000 7.722000 1.166200
				CHANNELS 3 Xrotation Yrotation Zrotation
				JOINT Spine1
				{
					OFFSET 0.000000 12.024101 0.248800
					CHANNELS 3 Xrotation Yrotation Zrotation
					JOINT Spine2
					{
						OFFSET 0.000000 11.502998 -0.491200
						CHANNELS 3 Xrotation Yrotation Zrotation
						JOINT Neck_virtual
						{
							OFFSET 0.000000 0.000000 0.000000
							CHANNELS 3 Xrotation Yrotation Zrotation
							JOINT Neck
							{
								OFFSET 0.000000 18.430702 -3.123100
								CHANNELS 3 Xrotation Yrotation Zrotation
								JOINT Head
								{
									OFFSET 0.000000 9.051102 1.034000
									CHANNELS 3 Xrotation Yrotation Zrotation
									End Site
									{
										OFFSET 0 0 0
									}
								}
							}
						}
						JOINT LeftShoulder_virtual
						{
							OFFSET 0.000000 0.000000 0.000000
							CHANNELS 3 Xrotation Yrotation Zrotation
							JOINT LeftShoulder
							{
								OFFSET 6.197800 13.665199 -4.064700
								CHANNELS 3 Xrotation Yrotation Zrotation
								JOINT LeftArm
								{
									OFFSET 7.778100 -0.187103 -1.709300
									CHANNELS 3 Xrotation Yrotation Zrotation
									JOINT LeftForeArm
									{
										OFFSET 22.049376 0.000000 0.000000
										CHANNELS 3 Xrotation Yrotation Zrotation
										JOINT LeftHand
										{
											OFFSET 23.009392 0.000000 0.000000
											CHANNELS 3 Xrotation Yrotation Zrotation
											End Site
											{
												OFFSET 0 0 0
											}
										}
									}
								}
							}
						}
						JOINT RightShoulder_virtual
						{
							OFFSET 0.000000 0.000000 0.000000
							CHANNELS 3 Xrotation Yrotation Zrotation
							JOINT RightShoulder
							{
								OFFSET -6.197800 13.665199 -4.064700
								CHANNELS 3 Xrotation Yrotation Zrotation
								JOINT RightArm
								{
									OFFSET -7.778100 -0.187103 -1.709300
									CHANNELS 3 Xrotation Yrotation Zrotation
									JOINT RightForeArm
									{
										OFFSET -22.049376 0.000000 0.000000
										CHANNELS 3 Xrotation Yrotation Zrotation
										JOINT RightHand
										{
											OFFSET -23.009392 0.000000 0.000000
											CHANNELS 3 Xrotation Yrotation Zrotation
											End Site
											{
												OFFSET 0 0 0
											}
										}
									}
								}
							}
						}
					}
				}
			}
		}
	}
}
MOTION
Frames: 11
Frame Time: 0.03333333
-5.383551 66.813324 12.139690 0.000000 0.000000 0.000000 15.246702 46.098378 -6.775541 -70.988458 -10.719937 -29.556667 69.953486 -49.036985 5.275817 -6.795417 -1.538386 5.100383 0.000000 0.000000 0.000000 15.246702 46.098378 -6.775541 10.921694 -48.939204 3.004435 44.131153 13.646046 -9.125064 -19.377124 0.404575 -7.155169 0.000000 0.000000 0.000000 15.246702 46.098378 -6.775541 0.000000 0.000002 0.000000 8.129887 8.029132 0.003004 2.381662 15.778995 -0.339816 0.000000 0.000000 0.000000 2.403997 15.779101 -0.339332 24.492230 -34.509585 6.782140 0.000000 0.000000 0.000000 2.403997 15.779101 -0.339332 3.133504 -2.562303 -3.584627 -38.240754 7.071619 -29.653567 51.130325 1.007859 17.797861 0.000000 0.000000 0.000000 2.403997 15.779101 -0.339332 -3.243330 8.889443 -18.987004 -18.337455 -10.441364 2.113099 -35.983438 12.714079 6.640605 0.000000 0.000000 0.000000 
-5.165249 66.942291 12.121580 0.000000 0.000000 0.000000 14.839645 44.635501 -6.437446 -70.617927 -10.737048 -28.806599 69.817347 -48.320945 5.143041 -7.047836 -1.563961 5.030775 0.000000 0.000000 0.000000 14.839645 44.635501 -6.437446 10.384731 -47.540596 2.207864 44.121116 14.272007 -9.083707 -19.093486 0.013250 -7.275111 0.000000 0.000000 0.000000 14.839645 44.635501 -6.437446 0.000000 0.000000 0.000000 8.162788 7.992168 -0.025954 2.453889 15.715425 -0.410868 0.000000 0.000000 0.000000 2.476206 15.715458 -0.410363 24.483102 -34.297822 7.138970 0.000000 0.000000 0.000000 2.476206 15.715458 -0.410363 3.030143 -2.053846 -3.444212 -34.893640 7.814693 -28.841410 51.215231 1.798530 17.534518 0.000000 0.000000 0.000000 2.476206 15.715458 -0.410363 -3.234086 9.381080 -18.988033 -20.179968 -10.125692 2.111671 -35.764793 13.521232 7.848389 0.000000 0.000000 0.000000 
-4.920506 67.075829 12.105156 0.000000 0.000000 0.000000 14.315435 43.004920 -6.009863 -70.138755 -10.712460 -27.957836 69.701227 -47.518958 4.989016 -7.337252 -1.594433 4.949469 0.000000 0.000000 0.000000 14.315435 43.004920 -6.009863 9.873271 -46.026671 1.287444 43.892951 13.534466 -9.074915 -18.811383 0.929965 -6.766737 0.000000 0.000000 0.000000 14.315435 43.004920 -6.009863 0.000000 -0.000001 0.000000 8.186931 7.952149 -0.073283 2.510252 15.645948 -0.515675 0.000000 0.000000 0.000000 2.532584 15.646039 -0.515180 24.400712 -34.088258 7.703141 0.000000 0.000000 0.000000 2.532584 15.646039 -0.515180 2.904505 -1.393838 -3.364780 -31.432660 8.742946 -28.038413 51.355697 2.474099 17.546578 0.000000 0.000000 0.000000 2.532584 15.646039 -0.515180 -3.144802 9.710541 -18.951717 -22.316883 -9.294432 2.336564 -35.689139 13.933785 9.047906 0.000000 0.000000 0.000000 
-4.655206 67.211388 12.084737 0.000000 0.000000 0.000000 13.707177 41.284054 -5.532101 -69.574923 -10.679117 -27.087091 69.602524 -46.622277 4.835756 -7.661810 -1.626177 4.840320 0.000000 0.000000 0.000000 13.707177 41.284054 -5.532101 9.420224 -44.501145 0.303451 43.832288 13.759648 -9.016464 -18.527949 1.000972 -6.589253 0.000000 0.000000 0.000000 13.707177 41.284054 -5.532101 0.000001 0.000000 0.000000 8.222851 7.883279 -0.122318 2.590915 15.519597 -0.627977 0.000000 0.000000 0.000000 2.613262 15.519691 -0.627487 23.964940 -33.896497 8.093912 0.000000 0.000000 0.000000 2.613262 15.519691 -0.627487 2.760278 -0.547897 -3.344334 -27.854189 9.898217 -27.279946 51.514359 3.115299 17.933621 0.000000 0.000000 0.000000 2.613262 15.519691 -0.627487 -3.150914 9.830083 -18.703804 -24.875225 -7.756465 2.628344 -35.412666 14.042520 10.178178 0.000000 0.000000 0.000000 
-4.374082 67.348648 12.048303 0.000000 0.000000 0.000000 13.082217 39.478067 -5.058049 -68.972685 -10.656065 -26.216732 69.491451 -45.621958 4.679047 -8.005444 -1.658954 4.726929 0.000000 0.000000 0.000000 13.082217 39.478067 -5.058049 8.951584 -42.954650 -0.730195 43.824980 13.997305 -8.980489 -18.257702 1.067801 -6.347591 0.000000 0.000000 0.000000 13.082217 39.478067 -5.058049 0.000001 0.000000 0.000000 8.280417 7.764542 -0.162249 2.713041 15.294491 -0.723581 0.000000 0.000000 0.000000 2.735398 15.294616 -0.723096 22.780651 -33.725060 7.697573 0.000000 0.000000 0.000000 2.735398 15.294616 -0.723096 2.600918 -0.067487 -3.161110 -24.095454 12.170700 -26.669076 51.661177 3.695024 19.027300 0.000000 0.000000 0.000000 2.735398 15.294616 -0.723096 -3.339996 9.640849 -18.623117 -27.821736 -5.051710 3.806248 -31.427746 13.838943 9.620140 0.000000 0.000000 0.000000 
-4.078396 67.498650 11.999687 0.000000 0.000000 0.000000 12.516130 37.540250 -4.626196 -68.352210 -10.639655 -25.306339 69.305089 -44.525085 4.482702 -8.347306 -1.699347 4.685369 0.000000 0.000000 0.000000 12.516130 37.540250 -4.626196 8.399246 -41.329789 -1.780256 43.854698 14.204310 -9.016925 -17.981919 1.120675 -6.013938 0.000000 0.000000 0.000000 12.516130 37.540250 -4.626196 0.000001 0.000000 0.000000 8.361731 7.595496 -0.165528 2.876765 14.970304 -0.744335 0.000000 0.000000 0.000000 2.899140 14.970441 -0.743860 20.706839 -33.508601 6.187278 0.000000 0.000000 0.000000 2.899140 14.970441 -0.743860 2.424711 0.585046 -3.033971 -20.214612 14.627111 -26.366998 51.808016 4.381864 20.064502 0.000000 0.000000 0.000000 2.899140 14.970441 -0.743860 -3.702871 9.073996 -19.067877 -31.284688 -1.979443 6.010695 -29.451564 13.480424 9.734775 0.000000 0.000000 0.000000 
-3.770587 67.671921 11.935598 0.000000 0.000000 0.000000 12.046484 35.413520 -4.234984 -67.711818 -10.595467 -24.293600 68.976441 -43.349127 4.205628 -8.654931 -1.753155 4.764589 0.000000 0.000000 0.000000 12.046484 35.413520 -4.234984 7.656529 -39.600013 -2.971959 43.938013 14.457345 -9.013638 -17.682841 1.173876 -5.669241 0.000000 0.000000 0.000000 12.046484 35.413520 -4.234984 0.000001 -0.000002 0.000000 8.434974 7.395348 -0.145244 3.019840 14.586173 -0.713342 0.000000 0.000000 0.000000 3.042198 14.586269 -0.712855 18.084411 -33.122920 3.891834 0.000000 0.000000 0.000000 3.042198 14.586269 -0.712855 2.233196 1.185078 -2.877018 -16.282283 17.376517 -26.437297 51.977111 5.090879 20.952254 0.000000 0.000000 0.000000 3.042198 14.586269 -0.712855 -4.013846 8.182108 -19.576483 -34.919923 1.841180 8.631890 -27.706900 12.983134 9.732387 0.000000 0.000000 0.000000 
-3.453677 67.872665 11.856647 0.000000 0.000000 0.000000 11.651601 33.062798 -3.846557 -67.018875 -10.484649 -23.135399 68.485439 -42.098171 3.833490 -8.920215 -1.824180 4.974258 0.000000 0.000000 0.000000 11.651601 33.062798 -3.846557 6.729312 -37.714563 -4.281493 44.079879 14.719672 -9.017953 -17.359821 1.220610 -5.286066 0.000000 0.000000 0.000000 11.651601 33.062798 -3.846557 0.000000 0.000000 0.000000 8.474926 7.199541 -0.123426 3.090644 14.215102 -0.648844 0.000000 0.000000 0.000000 3.113028 14.215181 -0.648340 15.552662 -32.502377 1.558975 0.000000 0.000000 0.000000 3.113028 14.215181 -0.648340 2.032844 2.042575 -2.769254 -12.439114 19.807648 -26.900309 52.208743 5.729166 21.575593 0.000000 0.000000 0.000000 3.113028 14.215181 -0.648340 -4.280433 7.096577 -20.193120 -38.687957 6.014419 11.826095 -26.099461 12.379088 9.536537 0.000000 0.000000 0.000000 
-3.138572 68.083328 11.732190 0.000000 0.000000 0.000000 11.269695 30.485460 -3.423638 -66.271741 -10.278594 -21.833605 67.877546 -40.758181 3.393872 -9.141932 -1.905836 5.241920 0.000000 0.000000 0.000000 11.269695 30.485460 -3.423638 5.227877 -37.028173 -6.525641 44.573309 15.870348 -9.039509 -16.999521 1.926263 -5.250600 0.000000 0.000000 0.000000 11.269695 30.485460 -3.423638 0.000000 0.000001 -0.000001 8.463083 7.031816 -0.102582 3.063972 13.894967 -0.619701 0.000000 0.000000 0.000000 3.086339 13.895111 -0.619230 13.587926 -31.674961 -0.182344 0.000000 0.000000 0.000000 3.086339 13.895111 -0.619230 1.810999 2.620163 -2.593528 -8.621577 22.560617 -28.027869 52.350111 6.494717 22.788096 0.000000 0.000000 0.000000 3.086339 13.895111 -0.619230 -4.352358 6.217265 -20.242287 -42.057508 10.371735 15.398672 -24.215789 11.405357 8.907367 0.000000 0.000000 0.000000 
-2.816739 68.318733 11.598716 0.000000 0.000000 0.000000 10.843092 27.700899 -2.955274 -65.386644 -10.010283 -20.422401 67.200326 -39.290373 2.948727 -9.379109 -1.995405 5.522951 0.000000 0.000000 0.000000 10.843092 27.700899 -2.955274 4.396327 -33.671043 -7.326159 44.804009 15.392326 -9.095344 -16.728486 1.406190 -4.485980 0.000000 0.000000 0.000000 10.843092 27.700899 -2.955274 0.000000 0.000000 0.000000 8.448807 6.928321 -0.092188 3.032075 13.705772 -0.588835 0.000000 0.000000 0.000000 3.054463 13.705888 -0.588350 12.355410 -30.562487 -1.007588 0.000000 0.000000 0.000000 3.054463 13.705888 -0.588350 1.581660 3.281527 -2.409849 -4.972771 24.901265 -29.550503 52.600875 7.124026 23.806566 0.000000 0.000000 0.000000 3.054463 13.705888 -0.588350 -4.462592 5.431246 -19.268314 -45.148493 13.651408 18.801844 -21.844881 12.742670 8.957188 0.000000 0.000000 0.000000 
-2.481516 68.583473 11.477471 0.000000 0.000000 0.000000 10.358410 24.738090 -2.468695 -64.342096 -9.722609 -18.965752 66.511808 -37.658931 2.568034 -9.681295 -2.085601 5.757511 0.000000 0.000000 0.000000 10.358410 24.738090 -2.468695 3.204343 -31.946799 -9.118591 45.128849 16.081786 -9.120965 -16.284858 1.747919 -4.165932 0.000000 0.000000 0.000000 10.358410 24.738090 -2.468695 0.000001 -0.000002 0.000000 8.466320 6.804912 -0.075888 3.064237 13.476662 -0.560168 0.000000 0.000000 0.000000 3.086609 13.476767 -0.559683 11.754020 -29.084574 -0.940045 0.000000 0.000000 0.000000 3.086609 13.476767 -0.559683 1.342782 4.137972 -2.264872 -1.353752 26.885831 -31.272284 52.894214 7.253862 23.916433 0.000000 0.000000 0.000000 3.086609 13.476767 -0.559683 -4.407606 4.811301 -18.138269 -48.520663 16.735056 22.608971 -19.010501 14.304324 8.561815 0.000000 0.000000 0.000000 
